<?xml version="1.0" standalone="no"?>
<!DOCTYPE svg PUBLIC "-//W3C//DTD SVG 20010904//EN"
 "http://www.w3.org/TR/2001/REC-SVG-20010904/DTD/svg10.dtd">
<svg version="1.0" xmlns="http://www.w3.org/2000/svg"
 width="640.000000pt" height="640.000000pt" viewBox="0 0 640.000000 640.000000"
 preserveAspectRatio="xMidYMid meet">
<metadata>
Created by potrace 1.14, written by Peter Selinger 2001-2017
</metadata>
<g transform="translate(0.000000,640.000000) scale(0.100000,-0.100000)"
fill="#000000" stroke="none">
<path d="M436 5383 c-2 -2 -16 -6 -32 -9 -46 -8 -76 -32 -219 -174 -163 -161
-191 -207 -182 -300 4 -33 14 -74 23 -92 9 -18 214 -231 455 -473 241 -242
594 -596 784 -788 l346 -347 -418 -420 c-1015 -1018 -1151 -1157 -1168 -1190
-10 -19 -20 -60 -22 -91 -8 -94 20 -140 185 -303 84 -84 157 -147 182 -158 76
-35 183 -22 243 31 98 86 1994 1993 2006 2017 7 16 18 37 23 47 13 26 7 114
-11 161 -12 30 -255 279 -1019 1043 -552 552 -1017 1010 -1034 1019 -30 15
-134 35 -142 27z"/>
<path d="M3066 1753 c-119 -35 -186 -123 -187 -248 -1 -19 1 -90 2 -115 0 -14
1 -29 1 -35 -5 -160 -1 -205 22 -259 28 -65 114 -128 177 -130 16 -1 29 -3 29
-6 0 -5 108 -4 268 3 34 1 62 0 62 -3 0 -3 26 -4 57 -2 32 1 74 2 93 1 19 0
44 0 55 1 11 1 25 1 30 1 182 0 244 0 260 0 11 0 95 -1 187 -3 93 -2 168 0
168 3 0 3 23 3 50 -1 28 -4 50 -3 50 0 0 4 19 4 43 0 23 -3 56 -3 74 1 17 3
37 3 43 -1 6 -4 29 -4 50 0 22 4 42 5 44 2 3 -2 58 -4 123 -3 65 1 125 2 133
2 8 0 80 0 160 0 178 0 143 0 342 -3 93 -2 168 0 168 3 0 3 23 3 50 -1 28 -4
50 -3 50 0 0 4 19 4 43 0 23 -3 56 -3 74 1 17 3 37 3 43 -1 6 -4 29 -4 50 0
22 4 42 5 44 2 7 -6 201 -5 261 3 62 7 119 36 153 77 57 67 57 67 59 304 3
249 -2 275 -66 340 -58 59 -112 75 -248 74 -35 -1 -71 -1 -80 -1 -83 2 -116 0
-124 -4 -5 -4 -9 -1 -9 5 0 6 -4 9 -9 5 -5 -3 -45 -5 -88 -5 -43 1 -98 0 -123
-1 -25 -1 -52 -1 -60 0 -8 0 -96 0 -195 0 -99 0 -186 0 -192 0 -7 1 -19 1 -25
2 -7 1 -38 1 -68 0 -70 -1 -230 -2 -250 -1 -8 0 -24 0 -35 0 -11 -1 -27 -1
-35 -1 -8 0 -42 0 -75 0 -33 0 -67 0 -75 0 -8 0 -62 0 -120 0 -58 0 -112 0
-120 0 -60 2 -113 0 -121 -4 -5 -4 -9 -3 -9 2 0 4 -43 6 -95 3 -52 -3 -105 -3
-117 0 -13 4 -42 3 -65 0 -24 -4 -43 -3 -43 2 0 5 -4 7 -9 3 -5 -3 -45 -5 -88
-5 -43 1 -98 0 -123 -1 -25 -1 -52 -1 -60 0 -8 0 -96 0 -195 0 -99 0 -187 0
-195 0 -46 2 -145 -1 -151 -5 -4 -2 -9 0 -11 5 -1 4 -25 2 -52 -6z"/>
</g>
</svg>
